<svg width="50" height="35" viewBox="0 0 50 35" fill="none" xmlns="http://www.w3.org/2000/svg">
<path d="M0 2.5C0 1.83696 0.263392 1.20107 0.732233 0.732234C1.20107 0.263393 1.83696 0 2.5 0H47.5C48.163 0 48.7989 0.263393 49.2678 0.732234C49.7366 1.20107 50 1.83696 50 2.5C50 3.16304 49.7366 3.79893 49.2678 4.26777C48.7989 4.73661 48.163 5 47.5 5H2.5C1.83696 5 1.20107 4.73661 0.732233 4.26777C0.263392 3.79893 0 3.16304 0 2.5V2.5Z" fill="#EDF1F7"/>
<path d="M0 17.5C0 16.837 0.263392 16.2011 0.732233 15.7322C1.20107 15.2634 1.83696 15 2.5 15H47.5C48.163 15 48.7989 15.2634 49.2678 15.7322C49.7366 16.2011 50 16.837 50 17.5C50 18.163 49.7366 18.7989 49.2678 19.2678C48.7989 19.7366 48.163 20 47.5 20H2.5C1.83696 20 1.20107 19.7366 0.732233 19.2678C0.263392 18.7989 0 18.163 0 17.5V17.5Z" fill="#EDF1F7"/>
<path d="M2.5 30C1.83696 30 1.20107 30.2634 0.732233 30.7322C0.263392 31.2011 0 31.837 0 32.5C0 33.163 0.263392 33.7989 0.732233 34.2678C1.20107 34.7366 1.83696 35 2.5 35H47.5C48.163 35 48.7989 34.7366 49.2678 34.2678C49.7366 33.7989 50 33.163 50 32.5C50 31.837 49.7366 31.2011 49.2678 30.7322C48.7989 30.2634 48.163 30 47.5 30H2.5Z" fill="#EDF1F7"/>
</svg>
