<svg width="188" height="25" viewBox="0 0 188 25" fill="none" xmlns="http://www.w3.org/2000/svg">
<path d="M3.93882 9.23782H0V13.4556H3.93882V24H8.64V13.4556H12.1976L12.7059 9.23782H8.64V7.00246C8.38588 4.42864 9.88235 3.97973 10.8 3.9235H12.96V0.254054L9.65647 0.000947505C5.21788 -0.0665365 3.99529 3.48762 3.93882 5.27314V9.23782Z" fill="#959698"/>
<path fill-rule="evenodd" clip-rule="evenodd" d="M101.546 18.4573C101.134 16.457 100.557 11.327 101.546 6.80873C101.683 6.03412 102.411 4.45549 104.223 4.33783C107.458 4.0829 115.442 3.72599 121.489 4.33783C122.303 4.34764 124.049 4.85555 124.519 6.80873C124.882 8.8384 125.39 13.9802 124.519 18.3102C124.343 19.0063 123.49 20.434 121.489 20.5752C119.96 20.8399 114.365 21.2105 104.223 20.5752C103.536 20.4967 102.04 19.9634 101.546 18.4573ZM116.783 12.4564L110.635 8.95594V15.9568L116.783 12.4564Z" fill="#959698"/>
<path fill-rule="evenodd" clip-rule="evenodd" d="M51.7426 1C48.0188 1 45 4.01878 45 7.74263V18.2574C45 21.9812 48.0188 25 51.7426 25H62.2574C65.9812 25 69 21.9812 69 18.2574V7.74263C69 4.01878 65.9812 1 62.2574 1H51.7426ZM51.6487 3.21618C49.2009 3.21618 47.2165 5.20056 47.2165 7.64841V18.3517C47.2165 20.7996 49.2009 22.784 51.6487 22.784H62.3049C64.7528 22.784 66.7371 20.7996 66.7371 18.3517V7.6484C66.7371 5.20056 64.7528 3.21618 62.3049 3.21618H51.6487Z" fill="#959698"/>
<path fill-rule="evenodd" clip-rule="evenodd" d="M56.9989 19.2003C60.3973 19.2003 63.1522 16.4454 63.1522 13.047C63.1522 9.6487 60.3973 6.8938 56.9989 6.8938C53.6006 6.8938 50.8457 9.6487 50.8457 13.047C50.8457 16.4454 53.6006 19.2003 56.9989 19.2003ZM56.9985 17.0314C59.225 17.0314 61.03 15.2264 61.03 12.9999C61.03 10.7734 59.225 8.96851 56.9985 8.96851C54.772 8.96851 52.9671 10.7734 52.9671 12.9999C52.9671 15.2264 54.772 17.0314 56.9985 17.0314Z" fill="#959698"/>
<circle cx="63.4596" cy="6.58753" r="1.43811" fill="#959698"/>
<path d="M171.849 8.42372C165.328 8.16953 160.616 4.17747 159.075 2.21322C156.822 5.91063 159.361 9.06885 160.912 10.1858C160.296 10.2551 158.818 9.791 158.156 9.55028C158.369 13.6174 161.564 15.1927 163.135 15.4719C162.281 15.7261 160.981 15.7126 160.438 15.6741C161.529 18.9556 164.706 19.776 166.158 19.776C163.431 22.2255 158.917 22.5298 157 22.3757C162.957 25.842 172.145 26.5353 178.695 20.3537C182.971 15.6605 183.951 12.6681 184.208 6.95053C185.891 5.77198 186.885 4.41819 187.171 3.88861C186.436 4.30457 184.613 4.63965 183.793 4.75519C185.31 3.96949 186.164 2.25173 186.401 1.49106C185.524 2.115 183.427 2.71391 182.489 2.93537C180.976 1.5294 179.931 1.1592 177.835 1C173.419 1.25997 171.226 4.49522 171.849 8.42372Z" fill="#959698"/>
</svg>
